{"title":"Angels in America 2003 2DVDrip English Klam","uid":5817171,"size":4758553964,"categoryP":"video","categoryS":"movies","magnet":"?xt=urn:btih:d6f19c0dca8ae712ea6750efcf16b78a623856cf&amp;dn=Angels+in+America+2003+2DVDrip+English+Klam&amp;tr=udp%3A%2F%2Ftracker.openbittorrent.com%3A80&amp;tr=udp%3A%2F%2Fopen.demonii.com%3A1337&amp;tr=udp%3A%2F%2Ftracker.coppersurfer.tk%3A6969&amp;tr=udp%3A%2F%2Fexodus.desync.com%3A6969","seeders":0,"leechers":1,"uploader":"Klambake","files":-1,"time":1283896233,"description":"With: Al Pacino, Meryl Streep en Justin Kirk\n\nGod has abandoned Heaven. It's 1985: the Reagans are in the White House and Death swings the scythe of AIDS. In Manhattan, Prior Walter tells Lou, his lover of four years, he's ill; Lou bolts. As disease and loneliness ravage Prior, guilt invades Lou. Joe Pitt, an attorney who is Mormon and Republican, is pushed by right-wing fixer Roy Cohn toward a job at the Justice Department. Both Pitt and Cohn are in the closet: Pitt out of shame and religious turmoil, Cohn to preserve his power and access. Pitt's wife Harper is strung out on Valium, aching to escape a sexless marriage. An angel invites Prior to be a prophet in death. Pitt's mother and Belize, a close friend, help Prior choose\n &lt;a href=&quot;\nhttp://www.imdb.com/title/tt0318997&quot; rel=&quot;nofollow&quot; target=&quot;_NEW&quot;&gt;\nhttp://www.imdb.com/title/tt0318997&lt;/a&gt;\n\nGeneral:\n\nComplete name                    : Angels\\Angels in America.avi\nFormat                           : AVI\nFormat/Info                      : Audio Video Interleave\nFile size                        : 2.08 GiB\nDuration                         : 2h 40mn\nOverall bit rate                 : 1 862 Kbps\n\nVideo:\n\nFormat                           : MPEG-4 Visual\nFormat profile                   : Simple@L3\nFormat settings, BVOP            : No\nFormat settings, QPel            : No\nFormat settings, GMC             : No warppoints\nFormat settings, Matrix          : Default (H.263)\nCodec ID                         : XVID\nCodec ID/Hint                    : XviD\nDuration                         : 2h 40mn\nBit rate                         : 1 467 Kbps\nWidth                            : 720 pixels\nHeight                           : 400 pixels\nDisplay aspect ratio             : 16:9\nFrame rate                       : 25.000 fps\nColor space                      : YUV\nChroma subsampling               : 4:2:0\nBit depth                        : 8 bits\nScan type                        : Progressive\nBits/(Pixel*Frame)               : 0.204\nStream size                      : 1.64 GiB (79%)\nWriting library                  : XviD 1.1.2 (UTC 2006-11-01)\n\nAudio:\n\nFormat                           : AC-3\nFormat/Info                      : Audio Coding 3\nMode extension                   : CM (complete main)\nCodec ID                         : 2000\nDuration                         : 2h 40mn\nBit rate mode                    : Constant\nBit rate                         : 384 Kbps\nChannel(s)                       : 6 channels\nChannel positions                : Front: L C R, Side: L R, LFE\nSampling rate                    : 48.0 KHz\nStream size                      : 440 MiB (21%)\nAlignment                        : Aligned on interleaves\nInterleave, duration             : 32 ms (0.80 video frame)\nInterleave, preload duration     : 64 ms","torrent":{"xt":"urn:btih:d6f19c0dca8ae712ea6750efcf16b78a623856cf","amp;dn":"Angels+in+America+2003+2DVDrip+English+Klam","amp;tr":["udp%3A%2F%2Ftracker.openbittorrent.com%3A80","udp%3A%2F%2Fopen.demonii.com%3A1337","udp%3A%2F%2Ftracker.coppersurfer.tk%3A6969","udp%3A%2F%2Fexodus.desync.com%3A6969"],"infoHash":"d6f19c0dca8ae712ea6750efcf16b78a623856cf","infoHashBuffer":{"type":"Buffer","data":[214,241,156,13,202,138,231,18,234,103,80,239,207,22,183,138,98,56,86,207]},"announce":[],"urlList":[]}}